<?xml version="1.0" standalone="no"?>
<!DOCTYPE svg PUBLIC "-//W3C//DTD SVG 20010904//EN"
 "http://www.w3.org/TR/2001/REC-SVG-20010904/DTD/svg10.dtd">
<svg version="1.0" xmlns="http://www.w3.org/2000/svg"
 width="702.000000pt" height="545.000000pt" viewBox="0 0 702.000000 545.000000"
 preserveAspectRatio="xMidYMid meet">

<g transform="translate(0.000000,545.000000) scale(0.100000,-0.100000)"
fill="#000000" stroke="none">
<path d="M0 2725 l0 -2725 3510 0 3510 0 0 2725 0 2725 -3510 0 -3510 0 0
-2725z m6860 825 l0 -1780 -3325 0 -3325 0 0 1780 0 1780 3325 0 3325 0 0
-1780z m-5167 -2235 c131 -28 281 -131 351 -244 114 -181 94 -437 -48 -609
-109 -133 -251 -202 -414 -202 -95 0 -163 15 -247 55 -262 125 -373 426 -257
695 31 72 102 158 172 211 129 97 279 129 443 94z m2011 -14 c83 -29 142 -66
208 -129 115 -109 160 -215 161 -372 0 -161 -59 -291 -184 -404 -101 -91 -219
-136 -359 -136 -240 0 -457 162 -524 389 -20 69 -21 199 -1 276 49 185 209
343 398 391 73 19 226 11 301 -15z m2021 14 c133 -28 255 -108 324 -212 17
-25 31 -50 31 -55 0 -4 -24 -8 -54 -8 -53 0 -56 1 -107 55 -33 35 -77 67 -118
88 -63 31 -71 32 -186 32 -112 0 -124 -2 -180 -29 -82 -41 -168 -128 -207
-213 -59 -125 -49 -291 23 -405 155 -242 473 -276 675 -71 49 50 55 53 103 53
30 0 51 -4 51 -11 0 -20 -59 -96 -113 -145 -95 -87 -221 -134 -359 -134 -366
0 -620 381 -488 733 29 76 72 138 141 200 128 116 290 159 464 122z m915 -1
c97 -29 190 -148 190 -246 0 -27 -1 -28 -55 -28 -50 0 -55 2 -55 22 0 36 -38
103 -72 128 -25 19 -49 25 -98 28 -59 3 -69 1 -106 -26 -48 -35 -74 -84 -74
-142 0 -88 44 -131 175 -172 128 -39 186 -69 235 -119 53 -55 74 -120 68 -219
-4 -60 -10 -87 -31 -123 -106 -181 -362 -210 -501 -57 -43 48 -71 105 -81 168
l-7 42 61 0 61 0 0 -32 c0 -48 44 -114 96 -144 54 -32 141 -36 191 -11 72 38
119 125 110 203 -10 94 -74 147 -243 199 -131 41 -179 77 -214 157 -47 110
-24 223 63 307 77 74 179 97 287 65z m-5954 -25 c57 -18 77 -31 130 -83 70
-71 94 -128 94 -227 0 -144 -106 -282 -235 -305 -22 -3 -45 -9 -51 -13 -8 -4
33 -66 108 -166 66 -88 128 -172 139 -187 l20 -28 -65 0 -66 0 -174 233 -175
232 102 6 c114 6 164 23 216 72 94 90 95 227 2 317 -62 60 -99 70 -270 70
l-141 0 0 -465 0 -465 -60 0 -60 0 0 515 0 515 209 0 c184 0 217 -3 277 -21z
m1977 1 c115 -43 181 -134 180 -246 -1 -75 -28 -139 -79 -184 -19 -16 -31 -30
-26 -30 19 0 104 -85 124 -124 27 -52 35 -159 18 -221 -17 -62 -86 -137 -158
-172 -56 -28 -60 -28 -269 -31 l-213 -3 0 515 0 516 185 0 c160 0 191 -3 238
-20z m2027 -30 l0 -50 -115 0 -115 0 0 -465 0 -465 -55 0 -55 0 0 465 0 465
-115 0 -115 0 0 50 0 50 285 0 285 0 0 -50z m230 -465 l0 -515 -55 0 -55 0 0
515 0 515 55 0 55 0 0 -515z"/>
<path d="M3250 3320 l0 -640 100 0 100 0 0 640 0 640 -100 0 -100 0 0 -640z"/>
<path d="M2080 3745 l0 -135 -80 0 -80 0 0 -80 0 -80 80 0 80 0 0 -315 c0
-338 3 -360 52 -413 42 -44 165 -63 292 -46 l46 7 0 78 0 78 -55 -6 c-70 -7
-110 9 -124 49 -7 19 -11 135 -11 299 l0 269 95 0 95 0 0 80 0 80 -95 0 -95 0
0 135 0 135 -100 0 -100 0 0 -135z"/>
<path d="M1289 3616 c-25 -7 -69 -26 -98 -41 -242 -132 -297 -565 -100 -788
139 -158 448 -179 616 -41 61 50 118 155 136 252 l7 32 -105 0 c-93 0 -105 -2
-105 -17 -1 -26 -38 -105 -63 -131 -81 -87 -244 -82 -321 9 -59 69 -71 112
-71 250 0 124 0 127 35 195 27 53 45 74 81 97 55 33 134 45 197 28 56 -16 119
-72 134 -122 l11 -39 104 0 c56 0 103 4 103 9 0 5 -9 38 -20 74 -35 114 -130
198 -263 233 -64 17 -216 17 -278 0z"/>
<path d="M2983 3613 c-53 -18 -134 -90 -159 -140 l-19 -38 -3 88 -3 87 -94 0
-95 0 0 -465 0 -465 105 0 105 0 0 258 c0 289 6 329 63 404 52 68 106 93 200
92 l77 -1 0 99 0 98 -67 -1 c-38 0 -87 -7 -110 -16z"/>
<path d="M1445 1207 c-180 -60 -305 -229 -305 -412 0 -263 246 -468 509 -426
182 29 336 183 361 362 27 186 -70 364 -245 450 -64 31 -77 34 -175 36 -66 2
-120 -2 -145 -10z"/>
<path d="M3377 1196 c-113 -47 -183 -111 -240 -221 -31 -58 -32 -65 -32 -180
0 -112 2 -124 29 -180 37 -76 133 -172 207 -207 220 -106 487 -12 592 209 30
64 32 75 32 178 0 104 -2 114 -32 175 -41 84 -126 169 -212 211 -61 31 -75 34
-176 37 -98 2 -116 0 -168 -22z"/>
<path d="M2350 1040 l0 -170 95 0 c128 0 184 13 234 56 94 81 73 212 -44 265
-32 15 -65 19 -162 19 l-123 0 0 -170z"/>
<path d="M2350 580 l0 -202 143 4 c112 3 149 8 177 22 80 42 110 89 110 172 0
81 -32 134 -104 169 -48 24 -70 27 -190 32 l-136 6 0 -203z"/>
</g>
</svg>
